control3min_grf.mot
version=1
nRows=30
nColumns 19
inDegrees=yes
endheader
time	1_ground_force_vx	1_ground_force_vy	1_ground_force_vz	1_ground_force_px	1_ground_force_py	1_ground_force_pz	1_ground_torque_x	1_ground_torque_y	1_ground_torque_z	2_ground_force_vx	2_ground_force_vy	2_ground_force_vz	2_ground_force_px	2_ground_force_py	2_ground_force_pz	2_ground_torque_x	2_ground_torque_y	2_ground_torque_z
            1.253500	          -55.192300	         1289.226174	         -157.036263	           -0.209753	            0.006072	           -0.369145	           -0.095020	            2.219557	           -0.270357	          -64.833631	         1331.775397	          197.936772	           -0.184771	            0.005947	           -0.734379	            0.126449	           -2.597446	           -0.386049
            1.254000	          -53.587649	         1291.568741	         -156.800891	           -0.210056	            0.006073	           -0.369293	           -0.095485	            2.301382	           -0.279396	          -64.086232	         1332.332260	          197.469159	           -0.184925	            0.005946	           -0.734250	            0.128376	           -2.668904	           -0.395567
            1.254500	          -51.478326	         1293.550712	         -156.430774	           -0.210239	            0.006073	           -0.369311	           -0.098606	            2.477774	           -0.299640	          -63.100561	         1331.784669	          197.091345	           -0.185009	            0.005946	           -0.734193	            0.130747	           -2.759508	           -0.408381
            1.255000	          -49.964990	         1295.712497	         -156.058407	           -0.210464	            0.006073	           -0.369341	           -0.099966	            2.592364	           -0.312230	          -62.397183	         1331.603461	          196.996517	           -0.185094	            0.005946	           -0.734220	            0.132307	           -2.823524	           -0.417710
            1.255500	          -48.451636	         1297.153539	         -155.734998	           -0.210816	            0.006073	           -0.369490	           -0.097472	            2.609533	           -0.313298	          -61.602899	         1332.160159	          196.622725	           -0.185119	            0.005945	           -0.734137	            0.128927	           -2.788044	           -0.411507
            1.256000	          -46.616961	         1298.774030	         -155.228174	           -0.211171	            0.006074	           -0.369541	           -0.090289	            2.515495	           -0.300649	          -60.900454	         1332.165207	          195.918512	           -0.185208	            0.005945	           -0.734037	            0.131832	           -2.883746	           -0.424106
            1.256500	          -44.782953	         1300.936515	         -154.948305	           -0.211386	            0.006074	           -0.369610	           -0.084289	            2.448583	           -0.291639	          -60.477583	         1331.799163	          195.682370	           -0.185261	            0.005944	           -0.734051	            0.132998	           -2.928804	           -0.430332
            1.257000	          -43.131197	         1303.817742	         -154.160503	           -0.211571	            0.006074	           -0.369562	           -0.085504	            2.584699	           -0.305609	          -59.963702	         1332.170599	          195.354977	           -0.185298	            0.005944	           -0.734021	            0.134222	           -2.981922	           -0.437281
            1.257500	          -41.250846	         1305.078287	         -153.747042	           -0.211760	            0.006074	           -0.369612	           -0.087333	            2.763021	           -0.325503	          -59.166156	         1331.806912	          194.837122	           -0.185265	            0.005944	           -0.733923	            0.134886	           -3.036241	           -0.444188
            1.258000	          -40.012789	         1305.978855	         -153.562841	           -0.211995	            0.006074	           -0.369758	           -0.089238	            2.912644	           -0.342482	          -58.744129	         1331.626698	          194.179277	           -0.185402	            0.005944	           -0.734047	            0.139431	           -3.160655	           -0.460890
            1.258500	          -38.177787	         1307.058430	         -152.966631	           -0.212205	            0.006075	           -0.369814	           -0.087639	            3.000434	           -0.351144	          -58.364801	         1330.340009	          193.892965	           -0.185279	            0.005944	           -0.733896	            0.135776	           -3.094815	           -0.451060
            1.259000	          -36.801884	         1307.417864	         -152.693356	           -0.212423	            0.006075	           -0.369883	           -0.081111	            2.881541	           -0.336535	          -57.706549	         1329.608325	          193.186113	           -0.185386	            0.005943	           -0.733854	            0.138142	           -3.182901	           -0.462461
            1.259500	          -35.287976	         1308.317353	         -152.188827	           -0.212567	            0.006075	           -0.369998	           -0.075965	            2.816450	           -0.327621	          -56.955785	         1329.243968	          192.809055	           -0.185385	            0.005943	           -0.733897	            0.137594	           -3.211195	           -0.465789
            1.260000	          -33.728249	         1309.937838	         -151.635451	           -0.212829	            0.006075	           -0.369935	           -0.073061	            2.837550	           -0.328468	          -56.768571	         1329.246150	          192.386645	           -0.185408	            0.005943	           -0.733881	            0.139739	           -3.272007	           -0.473570
            1.260500	          -32.672701	         1310.476646	         -151.131361	           -0.212969	            0.006075	           -0.369957	           -0.072710	            2.916329	           -0.336327	          -56.199493	         1327.226086	          191.393681	           -0.185243	            0.005944	           -0.733770	            0.142529	           -3.366010	           -0.485398
            1.261000	          -31.205274	         1310.476143	         -150.951563	           -0.213146	            0.006075	           -0.370024	           -0.074598	            3.132789	           -0.360861	          -55.866517	         1325.756488	          190.731277	           -0.185271	            0.005943	           -0.733700	            0.144194	           -3.421837	           -0.492286
            1.261500	          -29.874135	         1311.194195	         -150.218077	           -0.213275	            0.006076	           -0.370108	           -0.074545	            3.271840	           -0.374841	          -55.628586	         1324.654878	          190.023320	           -0.185282	            0.005943	           -0.733658	            0.146469	           -3.487790	           -0.500328
            1.262000	          -28.222242	         1310.831609	         -149.627595	           -0.213353	            0.006076	           -0.370218	           -0.072196	            3.353276	           -0.382767	          -55.532293	         1323.919156	          189.879876	           -0.185232	            0.005943	           -0.733717	            0.144719	           -3.450184	           -0.494834
            1.262500	          -27.212184	         1310.648830	         -149.034748	           -0.213417	            0.006076	           -0.370225	           -0.066723	            3.213668	           -0.365428	          -55.337248	         1321.712822	          189.121062	           -0.185105	            0.005944	           -0.733719	            0.146927	           -3.509295	           -0.502138
            1.263000	          -26.019355	         1310.647487	         -148.670859	           -0.213565	            0.006076	           -0.370139	           -0.063862	            3.216855	           -0.364898	          -55.144133	         1320.058225	          188.504995	           -0.185099	            0.005944	           -0.733621	            0.148331	           -3.550789	           -0.507054
            1.263500	          -24.917188	         1310.644358	         -147.894028	           -0.213688	            0.006076	           -0.370226	           -0.061362	            3.227631	           -0.364208	          -54.809142	         1318.035977	          187.887555	           -0.184967	            0.005944	           -0.733581	            0.149122	           -3.586050	           -0.511196
            1.264000	          -24.182431	         1309.921593	         -147.440388	           -0.213752	            0.006076	           -0.370259	           -0.060112	            3.256156	           -0.366502	          -54.846929	         1315.459724	          187.315239	           -0.184838	            0.005944	           -0.733525	            0.152489	           -3.657336	           -0.520787
            1.264500	          -23.264660	         1309.920197	         -147.075817	           -0.213881	            0.006076	           -0.370190	           -0.060704	            3.417950	           -0.383762	          -54.794474	         1313.805701	          186.464616	           -0.184860	            0.005944	           -0.733483	            0.154871	           -3.713335	           -0.527023
            1.265000	          -22.392145	         1307.935507	         -146.627929	           -0.213889	            0.006076	           -0.370320	           -0.059725	            3.488582	           -0.391092	          -54.928683	         1311.966175	          185.754191	           -0.184618	            0.005945	           -0.733512	            0.157270	           -3.756367	           -0.531844
            1.265500	          -21.702659	         1307.211506	         -145.944870	           -0.213961	            0.006076	           -0.370258	           -0.057356	            3.454686	           -0.385702	          -54.825278	         1309.206517	          185.134222	           -0.184461	            0.005945	           -0.733373	            0.157041	           -3.750080	           -0.530297
            1.266000	          -20.968438	         1306.309306	         -145.721280	           -0.213963	            0.006076	           -0.370241	           -0.053479	            3.331683	           -0.371656	          -54.864442	         1306.998759	          184.469348	           -0.184363	            0.005946	           -0.733461	            0.158780	           -3.782498	           -0.533860
            1.266500	          -20.370689	         1305.225136	         -145.085406	           -0.214021	            0.006076	           -0.370285	           -0.051075	            3.272557	           -0.363769	          -54.808574	         1304.423424	          183.803152	           -0.184234	            0.005946	           -0.733448	            0.161437	           -3.842132	           -0.541386
            1.267000	          -19.956193	         1302.879175	         -144.500356	           -0.213928	            0.006076	           -0.370299	           -0.050388	            3.289712	           -0.364857	          -54.987662	         1302.031413	          183.043840	           -0.184055	            0.005947	           -0.733421	            0.163984	           -3.882901	           -0.545871
            1.267500	          -19.541963	         1301.975340	         -143.909122	           -0.213953	            0.006076	           -0.370172	           -0.050496	            3.364260	           -0.371856	          -55.073054	         1299.639740	          182.284488	           -0.183910	            0.005948	           -0.733539	            0.164434	           -3.880389	           -0.544254
            1.268000	          -19.219462	         1299.449778	         -143.462188	           -0.213864	            0.006076	           -0.370223	           -0.051867	            3.506794	           -0.387158	          -55.431526	         1295.037030	          181.611212	           -0.183725	            0.005947	           -0.733313	            0.165571	           -3.868199	           -0.542462
